<svg xmlns="http://www.w3.org/2000/svg" width="21.567" height="24.647" viewBox="0 0 21.567 24.647">
  <path id="details" d="M11.7-4.338A6.161,6.161,0,0,1,5.533,1.824,6.161,6.161,0,0,1-.629-4.338,6.162,6.162,0,0,1,5.533-10.5,6.162,6.162,0,0,1,11.7-4.338ZM4.816,6.792,3.223,4.134H7.844L6.251,6.792l1.6,5.964L9.755,5a7.767,7.767,0,0,1,6.561,7.673,1.481,1.481,0,0,1-1.478,1.478H-3.771A1.48,1.48,0,0,1-5.25,12.67,7.767,7.767,0,0,1,1.311,5l1.9,7.76Z" transform="translate(5.25 10.5)" fill="#25aae1"/>
</svg>
