<svg xmlns="http://www.w3.org/2000/svg" width="182.156" height="173.5" viewBox="0 0 182.156 173.5">
  <path id="placeholder_qr_code" data-name="placeholder qr code" d="M57.6,188.273V166.552q0-27.4,29.212-27.4h22.7c4.93,0,7.628,2.482,7.628,7.092s-2.7,7.181-7.628,7.181H87c-9.3,0-14.42,4.7-14.42,13.919v20.923c0,4.61-2.6,7.269-7.535,7.269C60.3,195.542,57.6,192.883,57.6,188.273Zm0,96.9V263.542c0-4.7,2.6-7.27,7.443-7.27s7.535,2.571,7.535,7.27v20.923c0,9.22,5.117,13.919,14.42,13.919h22.514c4.93,0,7.628,2.571,7.628,7.181,0,4.522-2.7,7.092-7.628,7.092h-22.7Q57.651,312.657,57.6,285.174Zm46.423-66.936V187.3a3.977,3.977,0,0,1,4.094-3.9H140.5a3.976,3.976,0,0,1,4.093,3.9v30.941a3.906,3.906,0,0,1-4.093,3.812H108.121A3.906,3.906,0,0,1,104.028,218.238Zm0,46.279V233.665a3.922,3.922,0,0,1,4.094-3.9H140.5a3.922,3.922,0,0,1,4.093,3.9v30.853a3.922,3.922,0,0,1-4.093,3.9H108.121A3.922,3.922,0,0,1,104.028,264.517Zm32.468-50.18V191.11H112.122v23.228Zm0,46.367V237.476H112.122V260.7Zm-17.3-62.857h10.233V207.6H119.192Zm0,46.367h10.233v9.664H119.192Zm33.4-25.976V187.3a3.976,3.976,0,0,1,4.093-3.9h32.375a3.976,3.976,0,0,1,4.093,3.9v30.941a3.906,3.906,0,0,1-4.093,3.812H156.684A3.905,3.905,0,0,1,152.591,218.238Zm1.209,12.59h10.14v9.663H153.8Zm0,26.774h10.14v9.664H153.8Zm31.259-43.264V191.11H160.684v23.228Zm-17.3,29.877h10.234v9.664H167.754Zm.093-46.367h10.141V207.6H167.847Zm56.936-9.575V167.35c0-9.22-5.3-13.919-14.513-13.919H187.756c-4.838,0-7.535-2.571-7.535-7.181s2.7-7.092,7.535-7.092h22.793q29.166,0,29.212,27.4v21.721c0,4.61-2.6,7.269-7.535,7.269C227.481,195.542,224.783,192.883,224.783,188.273ZM180.221,305.565c0-4.61,2.7-7.181,7.535-7.181H210.27c9.21,0,14.513-4.7,14.513-13.919V263.542c0-4.7,2.6-7.27,7.443-7.27s7.535,2.571,7.535,7.27v21.632c0,18.263-9.768,27.483-29.212,27.483H187.756C182.918,312.657,180.221,310.086,180.221,305.565Zm1.581-74.737h10.141v9.663H181.8Zm0,26.774h10.141v9.664H181.8Z" transform="translate(-57.605 -139.157)" fill="#d9d9d9"/>
</svg>
