<svg xmlns="http://www.w3.org/2000/svg" width="120.743" height="79.012" viewBox="0 0 120.743 79.012">
  <g id="qr_code" data-name="qr code" transform="translate(57.743 3.506)">
    <path id="household" d="M134.507,314.607c0-11.187,14.279-26.511,36.873-26.511,22.548,0,36.87,15.324,36.87,26.511,0,4.093-2.525,6.443-9.881,6.443h-53.98C136.989,321.05,134.507,318.7,134.507,314.607Zm19.241-53.545c-.043-10.621,8.055-19.024,17.633-19.024s17.672,8.271,17.672,18.937c0,10.926-8.052,19.46-17.672,19.46S153.748,271.9,153.748,261.062Z" transform="translate(-192.25 -245.544)" fill="#4490ce"/>
    <rect id="qr_edit_button" data-name="qr/edit button" width="63" height="63" rx="10" fill="#ebf2ff"/>
    <path id="qr" d="M227.734,237.312v-5.376c0-2.593,1.216-3.809,3.765-3.809h5.45c2.549,0,3.765,1.216,3.765,3.809v5.376c0,2.593-1.217,3.795-3.765,3.795H231.5C228.95,241.107,227.734,239.905,227.734,237.312Zm0,15.031v-5.376c0-2.593,1.216-3.809,3.765-3.809h5.45c2.549,0,3.765,1.216,3.765,3.809v5.376c0,2.593-1.217,3.795-3.765,3.795H231.5C228.95,256.137,227.734,254.936,227.734,252.343Zm9.405-13.99c.557,0,.821-.264.821-.836v-5.8c0-.572-.264-.835-.821-.835h-5.83c-.572,0-.821.263-.821.835v5.8c0,.572.249.836.821.836Zm0,15.031a.718.718,0,0,0,.821-.821v-5.8c0-.587-.264-.85-.821-.85h-5.83c-.572,0-.821.263-.821.85v5.8c0,.557.249.821.821.821ZM232.5,235.964v-2.71c0-.264.073-.366.322-.366h2.8c.234,0,.337.1.337.366v2.71c0,.293-.1.381-.337.381h-2.8C232.568,236.345,232.5,236.258,232.5,235.964Zm0,15.031v-2.71c0-.264.073-.366.322-.366h2.8c.234,0,.337.1.337.366v2.71c0,.293-.1.381-.337.381h-2.8C232.568,251.376,232.5,251.288,232.5,250.995Zm10.269-13.683v-5.376c0-2.593,1.216-3.809,3.765-3.809h5.451c2.549,0,3.765,1.216,3.765,3.809v5.376c0,2.593-1.216,3.795-3.765,3.795h-5.451C243.98,241.107,242.765,239.905,242.765,237.312Zm.762,9.581v-2.71c0-.263.088-.366.322-.366h2.8c.249,0,.351.1.351.366v2.71c0,.293-.1.381-.351.381h-2.8C243.614,247.274,243.527,247.186,243.527,246.893Zm0,7.955v-2.71c0-.278.088-.367.322-.367h2.8c.249,0,.351.089.351.367v2.71c0,.278-.1.381-.351.381h-2.8C243.614,255.229,243.527,255.126,243.527,254.848Zm8.643-16.5c.572,0,.821-.264.821-.836v-5.8c0-.572-.249-.835-.821-.835h-5.83c-.572,0-.821.263-.821.835v5.8c0,.572.249.836.821.836Zm-4.629,12.525v-2.725c0-.263.088-.366.323-.366h2.8c.249,0,.352.1.352.366v2.725c0,.278-.1.381-.352.381h-2.8C247.628,251.259,247.54,251.156,247.54,250.878Zm.029-14.914v-2.71c0-.264.088-.366.323-.366h2.8c.249,0,.352.1.352.366v2.71c0,.293-.1.381-.352.381h-2.8C247.657,236.345,247.569,236.258,247.569,235.964Zm3.912,10.928v-2.71c0-.263.088-.366.322-.366h2.8c.249,0,.337.1.337.366v2.71c0,.293-.088.381-.337.381h-2.8C251.57,247.274,251.482,247.186,251.482,246.893Zm0,7.955v-2.71c0-.278.088-.367.322-.367h2.8c.249,0,.337.089.337.367v2.71c0,.278-.088.381-.337.381h-2.8C251.57,255.229,251.482,255.126,251.482,254.848Z" transform="translate(-209.951 -210.344)" fill="#25aae1"/>
  </g>
</svg>
